<svg width="272" height="242" viewBox="0 0 272 242" fill="none" xmlns="http://www.w3.org/2000/svg">
<rect x="186" y="90" width="152" height="100" rx="50" transform="rotate(90 186 90)" fill="#4D0606"/>
<rect x="176" y="100" width="125" height="79" rx="39.5" transform="rotate(90 176 100)" fill="#6E1717"/>
<rect x="40" y="17" width="193" height="131" rx="65.5" fill="#4D0606"/>
<rect x="53" y="43" width="167" height="79" rx="39.5" fill="#6E1717"/>
<rect x="97" y="50" width="11" height="50" rx="5.5" fill="#DD2424"/>
<rect x="165" y="50" width="11" height="50" rx="5.5" fill="#DD2424"/>
<rect x="97" y="104" width="11" height="11" rx="5.5" fill="#DD2424"/>
<rect x="165" y="104" width="11" height="11" rx="5.5" fill="#DD2424"/>
<rect x="118" width="43" height="33" rx="16.5" fill="#A00000"/>
<rect x="20.6936" y="107" width="65.4871" height="29.2652" rx="14.6326" transform="rotate(45 20.6936 107)" fill="#4D0606"/>
<rect width="65.4871" height="29.2652" rx="14.6326" transform="matrix(-0.707107 0.707107 0.707107 0.707107 251.306 107)" fill="#4D0606"/>
</svg>
